# Blender v2.72 (sub 0) OBJ File: 'grass.blend'
# www.blender.org
mtllib grass.mtl
o Cone
v 0.000000 -1.000000 -0.116339
v 0.017558 -1.000000 -0.112496
v 0.034442 -1.000000 -0.101115
v 0.050001 -1.000000 -0.082633
v 0.063640 -1.000000 -0.057761
v 0.074832 -1.000000 -0.027453
v 0.083149 -1.000000 0.007124
v 0.088271 -1.000000 0.044643
v 0.090000 -1.000000 0.083661
v 0.000000 1.000000 0.083661
v 0.088271 -1.000000 0.122679
v 0.083149 -1.000000 0.160197
v 0.074832 -1.000000 0.194775
v 0.063640 -1.000000 0.225082
v 0.050001 -1.000000 0.249955
v 0.034441 -1.000000 0.268437
v 0.017558 -1.000000 0.279818
v -0.000000 -1.000000 0.283661
v -0.017558 -1.000000 0.279818
v -0.034442 -1.000000 0.268437
v -0.050001 -1.000000 0.249955
v -0.063640 -1.000000 0.225082
v -0.074832 -1.000000 0.194775
v -0.083149 -1.000000 0.160197
v -0.088271 -1.000000 0.122679
v -0.090000 -1.000000 0.083660
v -0.088271 -1.000000 0.044642
v -0.083149 -1.000000 0.007124
v -0.074832 -1.000000 -0.027454
v -0.063640 -1.000000 -0.057761
v -0.050001 -1.000000 -0.082633
v -0.034441 -1.000000 -0.101115
v -0.017558 -1.000000 -0.112496
vt 0.000000 0.000000
vt 1.000000 0.000000
vt 1.000000 1.000000
vt 0.691342 0.961940
vt 0.308659 0.961940
vt 0.597545 0.990393
vt 0.500000 1.000000
vt 0.402456 0.990393
vt 0.222215 0.915735
vt 0.146447 0.853554
vt 0.853553 0.853553
vt 0.084266 0.777786
vt 0.038060 0.691342
vt 0.961940 0.691342
vt 0.009607 0.597546
vt 0.000000 0.500000
vt 1.000000 0.500000
vt 0.009607 0.402455
vt 0.038060 0.308659
vt 0.961940 0.308658
vt 0.084265 0.222215
vt 0.146446 0.146447
vt 0.853553 0.146447
vt 0.222215 0.084265
vt 0.308658 0.038060
vt 0.597545 0.009607
vt 0.402455 0.009607
vt 0.691342 0.038060
vt 0.777785 0.084265
vt 0.915735 0.222215
vt 0.990393 0.402455
vt 0.990393 0.597545
vt 0.915735 0.777785
vt 0.777785 0.915735
vt 0.500000 0.000000
vn -0.556900 0.085900 -0.826100
vn 0.212800 0.097200 -0.972200
vn -0.763000 0.072500 -0.642300
vn -0.875200 0.061800 -0.479900
vn -0.936700 0.054300 -0.345900
vn -0.971100 0.049300 -0.233600
vn -0.989700 0.046300 -0.135100
vn -0.998000 0.044900 -0.044200
vn -0.998000 0.044900 0.044200
vn -0.989700 0.046300 0.135100
vn -0.971100 0.049300 0.233600
vn -0.936700 0.054300 0.345900
vn -0.875200 0.061800 0.479900
vn -0.763000 0.072500 0.642300
vn -0.556900 0.085900 0.826100
vn -0.212800 0.097200 0.972200
vn 0.212800 0.097200 0.972200
vn 0.556900 0.085900 0.826100
vn 0.763000 0.072500 0.642300
vn 0.875200 0.061800 0.479900
vn 0.936700 0.054300 0.345900
vn 0.971100 0.049300 0.233600
vn 0.989700 0.046300 0.135100
vn 0.998000 0.044900 0.044200
vn 0.998000 0.044900 -0.044200
vn 0.989700 0.046300 -0.135100
vn 0.971100 0.049300 -0.233600
vn 0.936700 0.054300 -0.345900
vn 0.875200 0.061800 -0.479900
vn 0.763000 0.072500 -0.642300
vn -0.212800 0.097200 -0.972200
vn 0.556900 0.085900 -0.826100
vn 0.000000 -1.000000 0.000000
usemtl Material.001
s off
f 32/1/1 10/2/1 33/3/1
f 1/1/2 10/2/2 2/3/2
f 31/1/3 10/2/3 32/3/3
f 30/1/4 10/2/4 31/3/4
f 29/1/5 10/2/5 30/3/5
f 28/1/6 10/2/6 29/3/6
f 27/1/7 10/2/7 28/3/7
f 26/1/8 10/2/8 27/3/8
f 25/1/9 10/2/9 26/3/9
f 24/1/10 10/2/10 25/3/10
f 23/1/11 10/2/11 24/3/11
f 22/1/12 10/2/12 23/3/12
f 21/1/13 10/2/13 22/3/13
f 20/1/14 10/2/14 21/3/14
f 19/1/15 10/2/15 20/3/15
f 18/1/16 10/2/16 19/3/16
f 17/1/17 10/2/17 18/3/17
f 16/1/18 10/2/18 17/3/18
f 15/1/19 10/2/19 16/3/19
f 14/1/20 10/2/20 15/3/20
f 13/1/21 10/2/21 14/3/21
f 12/1/22 10/2/22 13/3/22
f 11/1/23 10/2/23 12/3/23
f 9/1/24 10/2/24 11/3/24
f 8/1/25 10/2/25 9/3/25
f 7/1/26 10/2/26 8/3/26
f 6/1/27 10/2/27 7/3/27
f 5/1/28 10/2/28 6/3/28
f 4/1/29 10/2/29 5/3/29
f 3/1/30 10/2/30 4/3/30
f 33/1/31 10/2/31 1/3/31
f 2/1/32 10/2/32 3/3/32
f 3/4/33 32/5/33 2/6/33
f 1/7/33 2/6/33 33/8/33
f 32/5/33 3/4/33 31/9/33
f 30/10/33 5/11/33 29/12/33
f 28/13/33 7/14/33 27/15/33
f 26/16/33 9/17/33 25/18/33
f 24/19/33 12/20/33 23/21/33
f 22/22/33 14/23/33 21/24/33
f 20/25/33 17/26/33 19/27/33
f 16/28/33 20/25/33 15/29/33
f 14/23/33 22/22/33 13/30/33
f 12/20/33 24/19/33 11/31/33
f 9/17/33 26/16/33 8/32/33
f 7/14/33 28/13/33 6/33/33
f 5/11/33 30/10/33 4/34/33
f 2/6/33 32/5/33 33/8/33
f 14/23/33 15/29/33 21/24/33
f 26/16/33 27/15/33 8/32/33
f 30/10/33 31/9/33 4/34/33
f 17/26/33 18/35/33 19/27/33
f 15/29/33 20/25/33 21/24/33
f 31/9/33 3/4/33 4/34/33
f 27/15/33 7/14/33 8/32/33
f 13/30/33 22/22/33 23/21/33
f 12/20/33 13/30/33 23/21/33
f 20/25/33 16/28/33 17/26/33
f 29/12/33 5/11/33 6/33/33
f 28/13/33 29/12/33 6/33/33
f 11/31/33 24/19/33 25/18/33
f 9/17/33 11/31/33 25/18/33
